<?xml version="1.0" encoding="UTF-8" standalone="no"?><!DOCTYPE svg PUBLIC "-//W3C//DTD SVG 1.1//EN" "http://www.w3.org/Graphics/SVG/1.1/DTD/svg11.dtd"><svg width="100%" height="100%" viewBox="0 0 796 592" version="1.1" xmlns="http://www.w3.org/2000/svg" xmlns:xlink="http://www.w3.org/1999/xlink" xml:space="preserve" xmlns:serif="http://www.serif.com/" style="fill-rule:evenodd;clip-rule:evenodd;stroke-linejoin:round;stroke-miterlimit:2;"><g><path d="M153.533,414.071c-30.345,-9.338 -55.658,-30.225 -70.866,-57.571l1.412,0.925c-2.996,-10.646 -4.137,-21.383 -4.137,-31.554c0.004,-32.342 11.546,-58.988 11.546,-58.988c-0,0 19.704,-41.346 37.058,-41.37l0.012,-0c0.825,-0 1.65,0.095 2.463,0.291c0.016,0.004 0.029,0.008 0.046,0.013c-0,-0 4.387,1.758 4.391,7.754c0.005,3.35 -1.358,8.021 -5.616,14.442c-0,-0 -12.3,19.129 -12.288,28.412c0.004,2.337 0.788,4.054 2.746,4.679c0.013,0.013 0.529,0.421 1.675,0.421c0.058,0 0.117,0 0.179,-0.004l0.038,-0c3.925,-0.171 14.4,-5.071 35.537,-41.383c0.025,-0.042 0.05,-0.084 0.075,-0.13c0.059,-0.1 0.113,-0.195 0.175,-0.3c0.008,-0.02 0.025,-0.046 0.038,-0.066c0.095,-0.167 0.187,-0.325 0.283,-0.488c0.017,-0.033 0.042,-0.071 0.058,-0.1c0.017,-0.029 0.03,-0.05 0.046,-0.079c0.017,-0.029 0.029,-0.054 0.046,-0.083c0.029,-0.046 0.058,-0.096 0.087,-0.146c0.021,-0.042 0.046,-0.084 0.071,-0.125c0.013,-0.021 0.021,-0.042 0.034,-0.063c0.091,-0.158 0.183,-0.316 0.275,-0.475c-0,-0.004 0.004,-0.004 0.004,-0.008c0.017,-0.033 0.037,-0.067 0.054,-0.096c0.008,-0.012 0.013,-0.016 0.021,-0.029c0.033,-0.062 0.066,-0.121 0.1,-0.179c0.008,-0.017 0.021,-0.038 0.033,-0.054c0.038,-0.071 0.079,-0.142 0.121,-0.213c0,0 16.471,-29.612 51.338,-29.617l0.004,0c8.729,0 18.612,1.855 29.675,6.496c0.05,0.021 0.096,0.042 0.15,0.063c0.037,0.017 0.079,0.033 0.116,0.05c0.055,0.025 0.104,0.046 0.159,0.067c-0,-0 -29.738,-29.313 -72.754,-29.309l-0.013,0c-15.417,0 -32.537,3.771 -50.604,14c-0.05,0.025 -0.092,0.05 -0.142,0.079l-12.421,9.034c21.954,-21.175 51.763,-34.2 84.584,-34.2c0.795,-0 1.587,0.016 2.379,0.029l-1.059,0.529c44.684,11.812 74.221,52.379 74.221,52.379c0,0 18.638,27.638 18.642,45.046c-0,3.992 -0.979,7.446 -3.387,9.904c-0.026,0.021 -1.621,1.233 -4.155,1.233l-0.158,0c-3.471,-0.066 -8.621,-2.433 -13.892,-13.008c-0.004,-0.004 -0.004,-0.008 -0.008,-0.012c-0.004,-0.013 -0.012,-0.021 -0.017,-0.034c-0.05,-0.1 -0.1,-0.204 -0.15,-0.304c-0.012,-0.021 -0.02,-0.041 -0.029,-0.058c-0.012,-0.025 -0.021,-0.046 -0.033,-0.071c-0.008,-0.012 -0.013,-0.025 -0.021,-0.038c-0.004,-0.012 -0.013,-0.025 -0.017,-0.037c0,0 -0.016,-0.033 -0.05,-0.1c-0.891,-1.746 -13.341,-25.879 -21.187,-25.879c-0.863,-0 -1.667,0.292 -2.396,0.933c-0.008,0.008 -0.017,0.013 -0.021,0.021c0,-0 -2.25,0.829 -2.25,6.163c0,6.758 3.617,20.766 20.017,49.512c-0,-0 7.446,12.708 7.442,29.971c-0,15.567 -6.055,34.842 -29.071,51.846c-0,-0 74.575,-19.83 75.858,-98.642l-1.158,-12.079c1.716,8.166 2.62,16.633 2.62,25.337c0,22.575 -6.091,43.725 -16.683,61.896l0.017,-0.479c-32.246,33.121 -82.079,38.896 -82.079,38.896c-0,-0 -4.85,0.383 -11.688,0.387c-0.137,0 -0.271,-0.004 -0.404,-0.004c-15.154,-0.033 -39.592,-1.991 -43.246,-13.971c-0.004,-0.016 -0.008,-0.029 -0.012,-0.041c-0.005,-0.013 -0.009,-0.021 -0.009,-0.03c-0.008,-0.02 -0.012,-0.041 -0.02,-0.062c-0,-0.012 -0.025,-0.208 -0.025,-0.529c-0,-2.088 1.07,-9.617 16.525,-9.621l0.004,0c1.008,0 2.079,0.033 3.216,0.1c0.034,0.004 0.071,0.004 0.109,0.008c-0,0 2.258,0.109 5.604,0.109c0.137,-0 0.275,-0.004 0.417,-0.004c9.654,-0.025 27.529,-0.963 27.508,-7.559c-0,-0.246 -0.025,-0.5 -0.075,-0.758c-0.004,-0.017 -0.008,-0.034 -0.008,-0.046c-0.005,-0.017 -0.009,-0.029 -0.013,-0.042l0.004,0c0.009,-0.083 1.746,-11.887 -55.258,-11.887l-0.004,-0c-0.55,-0 -1.096,-0 -1.659,0.004l-0.762,0c-4.988,-0.083 -50.013,-2.221 -59.321,-53.513c0,-0.008 -0.004,-0.024 -0.008,-0.033c-0.013,-0.087 -0.03,-0.179 -0.046,-0.271c-0.009,-0.033 -0.013,-0.058 -0.017,-0.096c0,-0.004 -0.004,-0.008 -0.004,-0.008c-0.008,-0.046 -0.017,-0.096 -0.025,-0.137c0,-0.009 0,-0.017 -0.004,-0.025c-0.008,-0.05 -0.017,-0.096 -0.025,-0.15l-0,-0.013c-0.025,-0.137 -0.046,-0.266 -0.071,-0.404c-0.021,-0.129 -0.046,-0.267 -0.067,-0.4l0,-0.004c-0.02,-0.125 -0.041,-0.254 -0.062,-0.379c-0.004,-0.034 -0.013,-0.075 -0.017,-0.113c-0.008,-0.037 -0.012,-0.075 -0.016,-0.112c-0.005,-0.025 -0.009,-0.055 -0.013,-0.079c-0.008,-0.042 -0.012,-0.08 -0.021,-0.121c0,-0.004 0,-0.013 -0.004,-0.017c0,-0.017 -0.004,-0.029 -0.004,-0.046c-0.004,-0.012 -0.004,-0.025 -0.009,-0.033c-0.004,-0.046 -0.012,-0.096 -0.02,-0.142c-0.005,-0.037 -0.009,-0.067 -0.017,-0.108c0,-0.017 -0.004,-0.038 -0.008,-0.054c-0,-0.009 -0,-0.021 -0.004,-0.025c-0.042,-0.275 -0.08,-0.546 -0.121,-0.821c-0.005,-0.033 -0.009,-0.063 -0.013,-0.096c-0.004,-0.033 -0.008,-0.075 -0.017,-0.108c-0.07,-0.513 -0.137,-1.034 -0.204,-1.554c0,-0.013 -0.004,-0.03 -0.004,-0.042c-0.008,-0.054 -0.012,-0.1 -0.021,-0.154c0,-0 -2.558,9.858 -2.558,24.321c0,25.349 7.867,64.849 51.154,90.229l12.179,5.404Z" style="fill:url(#_Radial1);"/><path d="M84.079,357.425l-1.412,-0.925c-9.825,-17.658 -15.421,-38.025 -15.421,-59.692c-0,-34.75 14.404,-66.125 37.512,-88.441l12.421,-9.034c0.05,-0.029 0.092,-0.054 0.142,-0.079c18.062,-10.229 35.192,-13.996 50.604,-14l0.013,0c43.008,0.004 72.754,29.309 72.754,29.309c-0.055,-0.021 -0.104,-0.042 -0.159,-0.067c-0.037,-0.017 -0.079,-0.033 -0.116,-0.05c-0.054,-0.021 -0.1,-0.042 -0.15,-0.063c-11.067,-4.641 -20.946,-6.5 -29.675,-6.496l-0.004,0c-34.871,0 -51.338,29.617 -51.338,29.617c-0.042,0.071 -0.083,0.142 -0.121,0.213c-0.012,0.016 -0.025,0.037 -0.033,0.054c-0.034,0.058 -0.067,0.117 -0.1,0.179c-0.008,0.013 -0.013,0.017 -0.021,0.029c-0.017,0.029 -0.037,0.063 -0.054,0.096c-0,0.004 -0.004,0.004 -0.004,0.008c-0.092,0.159 -0.184,0.317 -0.275,0.475c-0.013,0.021 -0.021,0.042 -0.034,0.063c-0.025,0.041 -0.05,0.083 -0.071,0.125c-0.029,0.05 -0.058,0.1 -0.087,0.146c-0.017,0.029 -0.029,0.054 -0.046,0.083c-0.016,0.029 -0.029,0.05 -0.046,0.079c-0.016,0.029 -0.041,0.067 -0.058,0.1c-0.096,0.163 -0.188,0.321 -0.283,0.488c-0.013,0.02 -0.03,0.046 -0.038,0.066c-0.062,0.105 -0.116,0.2 -0.175,0.3c-0.025,0.046 -0.05,0.088 -0.075,0.13c-21.137,36.308 -31.612,41.212 -35.537,41.383l-0.038,-0c-0.062,0.004 -0.121,0.004 -0.179,0.004c-1.146,0 -1.663,-0.408 -1.675,-0.421c-1.958,-0.625 -2.742,-2.342 -2.746,-4.679c-0.012,-9.283 12.288,-28.412 12.288,-28.412c4.258,-6.421 5.621,-11.092 5.616,-14.442c-0.004,-5.996 -4.391,-7.754 -4.391,-7.754c-0.017,-0.005 -0.03,-0.009 -0.046,-0.013c-0.817,-0.196 -1.638,-0.291 -2.463,-0.291l-0.012,-0c-17.354,0.02 -37.058,41.37 -37.058,41.37c-0,0 -11.542,26.646 -11.546,58.988c-0,10.171 1.141,20.908 4.137,31.554Z" style="fill:#d3d1d0;fill-rule:nonzero;"/><path d="M84.079,357.425l-1.412,-0.925l1.412,0.925Zm-4.137,-31.554c0.004,-32.342 11.546,-58.988 11.546,-58.988c-0,0 19.704,-41.35 37.058,-41.37c-17.354,0.024 -37.058,41.37 -37.058,41.37c-0,0 -11.542,26.646 -11.546,58.988Zm42.212,-44.35l0.013,-0l-0.013,-0Zm0.038,-0c3.925,-0.171 14.4,-5.075 35.537,-41.383c-21.137,36.312 -31.612,41.212 -35.537,41.383Zm-1.892,-0.417c-1.958,-0.625 -2.742,-2.342 -2.746,-4.679c0.004,2.337 0.788,4.054 2.746,4.679Zm37.504,-41.096c0.059,-0.1 0.113,-0.195 0.175,-0.3c-0.062,0.105 -0.116,0.2 -0.175,0.3Zm0.213,-0.366c0.095,-0.167 0.187,-0.325 0.283,-0.488c-0.096,0.163 -0.188,0.321 -0.283,0.488Zm0.341,-0.588c0.017,-0.029 0.03,-0.05 0.046,-0.079c-0.016,0.029 -0.029,0.05 -0.046,0.079Zm0.092,-0.162c0.029,-0.046 0.058,-0.096 0.087,-0.146c-0.029,0.05 -0.058,0.1 -0.087,0.146Zm0.158,-0.271c0.013,-0.021 0.021,-0.042 0.034,-0.063c-0.013,0.021 -0.021,0.042 -0.034,0.063Zm0.309,-0.538c-0,-0.004 0.004,-0.004 0.004,-0.008c-0,0.004 -0.004,0.004 -0.004,0.008Zm0.058,-0.104c0.008,-0.012 0.013,-0.016 0.021,-0.029c-0.008,0.013 -0.013,0.017 -0.021,0.029Zm0.121,-0.208c0.008,-0.017 0.021,-0.038 0.033,-0.054c-0.012,0.016 -0.025,0.037 -0.033,0.054Zm0.154,-0.267c0,0 16.467,-29.617 51.338,-29.617c-34.867,0.005 -51.338,29.617 -51.338,29.617Zm-23.792,-3.933c-0.004,-5.996 -4.391,-7.754 -4.391,-7.754c-0.017,-0.005 -0.03,-0.009 -0.046,-0.013c0.016,0.004 0.029,0.008 0.046,0.013c-0,-0 4.387,1.758 4.391,7.754Zm105.234,-19.008c-0.055,-0.021 -0.104,-0.042 -0.159,-0.067c0.055,0.025 0.104,0.046 0.159,0.067Zm-0.275,-0.117c-0.054,-0.021 -0.1,-0.042 -0.15,-0.063c0.05,0.021 0.096,0.042 0.15,0.063Zm-123.096,-15.192c18.067,-10.229 35.187,-14 50.604,-14c-15.412,0.004 -32.542,3.771 -50.604,14Zm50.617,-14l-0.009,0l0.009,0Z" style="fill:url(#_Radial2);"/><path d="M91.488,266.883c-0,0 21.675,-45.483 39.579,-41.066c-0,-0 10.658,4.279 -1.225,22.196c-0,-0 -19.271,29.975 -9.542,33.091c-0,0 9.542,7.779 38.95,-43.6c0,0 25.883,-46.541 81.442,-22.941c-0,-0 -54.975,-54.159 -123.513,-15.23l-12.421,9.034c-23.108,22.316 -37.512,53.691 -37.512,88.441c-0,21.667 5.596,42.034 15.421,59.692l1.412,0.925c-12.533,-44.5 7.409,-90.542 7.409,-90.542Z" style="fill:url(#_Linear3);"/><path d="M189.342,419.454c-12.455,0 -24.479,-1.896 -35.809,-5.383l-12.179,-5.404c-43.287,-25.38 -51.154,-64.88 -51.154,-90.229c0,-14.463 2.558,-24.321 2.558,-24.321c0.009,0.054 0.013,0.1 0.021,0.154c0,0.012 0.004,0.029 0.004,0.042c0.067,0.52 0.134,1.041 0.204,1.554c0.009,0.033 0.013,0.075 0.017,0.108c0.004,0.033 0.008,0.063 0.013,0.096c0.041,0.275 0.079,0.546 0.121,0.821c0.004,0.004 0.004,0.016 0.004,0.025c0.004,0.016 0.008,0.037 0.008,0.054c0.008,0.041 0.012,0.071 0.017,0.108c0.008,0.046 0.016,0.096 0.02,0.142c0.005,0.008 0.005,0.021 0.009,0.033c-0,0.017 0.004,0.029 0.004,0.046c0.004,0.004 0.004,0.013 0.004,0.017c0.009,0.041 0.013,0.079 0.021,0.121c0.004,0.024 0.008,0.054 0.013,0.079c0.004,0.037 0.008,0.075 0.016,0.112c0.004,0.038 0.013,0.079 0.017,0.113c0.021,0.125 0.042,0.254 0.062,0.379l0,0.004c0.021,0.133 0.046,0.271 0.067,0.4c0.025,0.138 0.046,0.267 0.071,0.404l-0,0.013c0.008,0.054 0.017,0.1 0.025,0.15c0.004,0.008 0.004,0.016 0.004,0.025c0.008,0.041 0.017,0.091 0.025,0.137c-0,0 0.004,0.004 0.004,0.008c0.004,0.038 0.008,0.063 0.017,0.096c0.016,0.092 0.033,0.184 0.046,0.271c0.004,0.009 0.008,0.025 0.008,0.033c9.308,51.292 54.342,53.434 59.321,53.513l0.762,0c0.563,-0.004 1.109,-0.004 1.659,-0.004l0.004,-0c56.991,-0 55.267,11.804 55.258,11.887l-0.004,0c0.004,0.013 0.008,0.025 0.013,0.042c0.054,0.275 0.083,0.542 0.083,0.804c0.021,6.596 -17.854,7.534 -27.508,7.559c-0.142,-0 -0.28,0.004 -0.417,0.004c-3.346,-0 -5.604,-0.109 -5.604,-0.109c-0.038,-0.004 -0.075,-0.004 -0.109,-0.008c-1.137,-0.067 -2.204,-0.1 -3.216,-0.1l-0.004,0c-15.455,0.004 -16.525,7.533 -16.525,9.621c-0,0.321 0.025,0.517 0.025,0.529c0.008,0.021 0.012,0.042 0.02,0.062c0,0.009 0.004,0.017 0.009,0.03c0.004,0.012 0.008,0.025 0.012,0.041c3.688,12.088 28.529,13.975 43.65,13.975c6.838,-0.004 11.688,-0.387 11.688,-0.387c-0,-0 49.833,-5.775 82.079,-38.896l-0.017,0.479c-21.196,36.333 -60.471,60.75 -105.437,60.75Z" style="fill:url(#_Linear4);"/><path d="M234.142,382.192c23.016,-17.004 29.071,-36.279 29.071,-51.846c0.004,-17.263 -7.442,-29.971 -7.442,-29.971c-16.4,-28.746 -20.017,-42.754 -20.017,-49.512c0,-5.334 2.25,-6.163 2.25,-6.163c0.004,-0.008 0.013,-0.013 0.021,-0.021c0.729,-0.641 1.533,-0.933 2.396,-0.933c7.846,-0 20.296,24.133 21.187,25.879c0.034,0.067 0.05,0.1 0.05,0.1c0.004,0.012 0.013,0.025 0.017,0.037c0.008,0.013 0.013,0.026 0.021,0.038c0.012,0.025 0.021,0.046 0.033,0.071c0.009,0.017 0.017,0.037 0.029,0.058c0.05,0.1 0.1,0.204 0.15,0.304c0.005,0.013 0.013,0.021 0.017,0.034c0.004,0.004 0.004,0.008 0.008,0.012c5.271,10.575 10.421,12.942 13.892,13.008l0.158,0c2.534,0 4.129,-1.212 4.155,-1.233c2.408,-2.458 3.387,-5.912 3.387,-9.904c-0.004,-17.408 -18.642,-45.046 -18.642,-45.046c0,0 -29.537,-40.567 -74.221,-52.379l1.059,-0.529c57.741,1.104 105.65,42.45 117.121,97.275l1.158,12.079c-1.283,78.812 -75.858,98.642 -75.858,98.642Z" style="fill:#d3d1d0;fill-rule:nonzero;"/><path d="M234.142,382.192c-0,-0 74.575,-19.83 75.858,-98.642c-1.283,78.812 -75.858,98.642 -75.858,98.642Zm29.071,-51.846c0.004,-17.263 -7.442,-29.971 -7.442,-29.971c-16.4,-28.746 -20.017,-42.754 -20.017,-49.512c0,6.758 3.617,20.766 20.017,49.512c-0,-0 7.446,12.708 7.442,29.971Zm12.77,-47.059l-0.158,0l0.158,0Zm0,0c2.534,0 4.129,-1.212 4.155,-1.233c-0.026,0.021 -1.621,1.233 -4.155,1.233Zm7.542,-11.137c-0.004,-17.408 -18.642,-45.046 -18.642,-45.046c0,0 -29.537,-40.567 -74.221,-52.379c44.684,11.812 74.221,52.379 74.221,52.379c0,0 18.638,27.638 18.642,45.046Zm-21.592,-1.871c-0.004,-0.004 -0.004,-0.008 -0.008,-0.012c0.004,0.004 0.004,0.008 0.008,0.012Zm-0.025,-0.046c-0.05,-0.1 -0.1,-0.204 -0.15,-0.304c0.05,0.1 0.1,0.204 0.15,0.304Zm-0.179,-0.362c-0.012,-0.025 -0.021,-0.046 -0.033,-0.071c0.012,0.025 0.021,0.046 0.033,0.071Zm-0.054,-0.109c-0.004,-0.012 -0.013,-0.025 -0.017,-0.037c0.004,0.012 0.013,0.025 0.017,0.037Zm-0.067,-0.137c-0.891,-1.746 -13.341,-25.879 -21.187,-25.879c7.846,-0 20.296,24.133 21.187,25.879Zm-23.583,-24.946c0.729,-0.641 1.533,-0.933 2.396,-0.933c-0.863,-0 -1.667,0.292 -2.396,0.933Z" style="fill:url(#_Radial5);"/><path d="M264.883,227.104c0,0 28.167,41.763 15.255,54.95c-0,0 -9.088,6.996 -18.48,-12.329c0,0 -16.046,-31.829 -23.654,-25.025c0,-0 -11.566,4.258 17.767,55.675c-0,-0 26.921,45.95 -21.629,81.817c-0,-0 74.575,-19.83 75.858,-98.642l-1.158,-12.079c-11.471,-54.825 -59.38,-96.171 -117.121,-97.275l-1.059,0.529c44.684,11.812 74.221,52.379 74.221,52.379Z" style="fill:url(#_Linear6);"/><path d="M38.392,278.7l-10.213,2.783c-2.137,0.575 -3.667,0.846 -5.375,1.104l-0.008,0.134c1.683,0.537 3.183,1.154 5.025,1.971l9.7,4.45l0.871,-10.442Zm0.837,11.25l10.088,4.529l-0.179,2.159l-28.796,-13.234l0.17,-2.029l30.588,-8.179l-0.179,2.158l-10.713,2.875l-0.979,11.721Z" style="fill:#afadae;fill-rule:nonzero;"/><path d="M48.746,269.483c1.525,-1.354 2.867,-3.433 3.467,-5.837c1.087,-4.333 -0.692,-7.609 -4.255,-8.5c-3.262,-0.817 -5.57,0.383 -8.254,4.183c-2.791,4.225 -5.892,6.413 -9.842,5.425c-4.25,-1.062 -6.466,-5.312 -5.229,-10.25c0.675,-2.704 1.879,-4.592 2.809,-5.404l1.525,1.2c-0.75,0.633 -2.029,2.275 -2.65,4.762c-1.171,4.68 1.433,7.017 3.708,7.588c3.221,0.804 5.312,-0.629 7.988,-4.383c3.12,-4.279 5.899,-6.275 10.237,-5.192c4.204,1.054 7.229,5.004 5.679,11.183c-0.621,2.488 -2.166,5.204 -3.7,6.413l-1.483,-1.188Z" style="fill:#afadae;fill-rule:nonzero;"/><path d="M44.771,242.492c0.721,-0.805 1.312,-1.992 1.875,-3.342c2.058,-4.938 0.921,-8.863 -3.446,-10.687c-4.329,-1.809 -7.6,0.52 -9.425,4.883c-0.746,1.8 -1.146,3.212 -1.292,4.017l12.288,5.129Zm-14.534,-3.767c0.38,-1.712 0.971,-3.813 1.942,-6.142c1.363,-3.262 3.259,-5.395 5.358,-6.291c1.83,-0.821 3.988,-0.829 6.276,0.125c2.366,0.991 3.85,2.375 4.708,4.22c1.267,2.588 1.104,5.971 -0.313,9.359c-0.529,1.266 -1.029,2.35 -1.725,3.212l11.759,4.904l-0.821,1.963l-27.184,-11.35Z" style="fill:#afadae;fill-rule:nonzero;"/><path d="M41.742,213.467l26.008,14.525l-1.033,1.854l-26.013,-14.529l1.038,-1.85Z" style="fill:#afadae;fill-rule:nonzero;"/><path d="M60.142,210.892l2.762,-3.838c2.684,-3.729 2.359,-7.667 -0.833,-9.962c-3.692,-2.659 -7.163,-1.017 -9.896,2.783c-1.187,1.65 -1.887,2.996 -2.183,3.713l10.15,7.304Zm-12.571,-6.438c0.725,-1.762 2.017,-3.937 3.229,-5.621c2.271,-3.158 4.4,-4.675 6.742,-5.054c1.716,-0.346 3.795,0.171 5.483,1.383c3.263,2.35 3.946,5.784 2.9,9.28l0.075,0.05c2,-1.496 4.708,-1.4 7.808,-0.038c4.363,1.884 6.492,2.709 7.821,2.904l-1.266,1.759c-1,-0.121 -3.48,-1.142 -6.992,-2.692c-4.017,-1.75 -6.684,-1.383 -9.121,1.708l-2.708,3.763l11.079,7.975l-1.242,1.725l-23.808,-17.142Z" style="fill:#afadae;fill-rule:nonzero;"/><path d="M86.192,185.279l-9.571,-4.516c-1.992,-0.946 -3.333,-1.738 -4.796,-2.65l-0.096,0.091c0.929,1.508 1.671,2.95 2.538,4.767l4.483,9.675l7.442,-7.367Zm-6.671,9.092l4.733,9.991l-1.542,1.526l-13.291,-28.755l1.446,-1.433l28.554,13.646l-1.538,1.525l-10.008,-4.771l-8.354,8.271Z" style="fill:#afadae;fill-rule:nonzero;"/><path d="M91.146,160.979l-7.917,5.638l-1.025,-1.442l17.563,-12.504l1.025,1.441l-7.917,5.638l16.246,22.813l-1.729,1.229l-16.246,-22.813Z" style="fill:#afadae;fill-rule:nonzero;"/><path d="M107.254,148.671l14.567,25.967l-1.85,1.037l-14.567,-25.967l1.85,-1.037Z" style="fill:#afadae;fill-rule:nonzero;"/><path d="M122.729,157.242c2.446,6.262 8.5,11.066 15.092,8.496c6.592,-2.576 7.925,-9.98 5.241,-16.859c-2.304,-5.891 -8.12,-11.312 -15.083,-8.596c-7.046,2.755 -7.792,10.45 -5.25,16.959Zm22.342,-9.292c3.829,9.804 -0.304,16.975 -6.729,19.483c-6.842,2.671 -14.263,-0.654 -17.659,-9.345c-3.554,-9.105 -0.187,-16.78 6.775,-19.5c7.004,-2.734 14.25,0.75 17.613,9.362Z" style="fill:#afadae;fill-rule:nonzero;"/><path d="M154.642,161.271l-5.1,-29.354l1.958,-0.338l14.425,15.35c3.029,3.242 5.204,5.688 7.133,8.271l0.08,-0.058c-0.996,-3.913 -1.617,-7.255 -2.421,-11.871l-2.534,-14.592l2,-0.346l5.1,29.35l-1.916,0.334l-14.159,-15.13c-2.766,-3.016 -5.304,-5.758 -7.354,-8.5l-0.079,0.059c0.846,3.575 1.442,6.75 2.292,11.625l2.579,14.854l-2.004,0.346Z" style="fill:#afadae;fill-rule:nonzero;"/><path d="M180.158,163.246c0.625,-1.888 1.605,-6.713 1.879,-9.471l2.767,-0.567c-0.65,3.35 -2.325,8.471 -2.975,9.742l-1.671,0.296Z" style="fill:#afadae;fill-rule:nonzero;"/><path d="M206.104,128.475l-2.783,29.654l-2.113,-0.196l2.788,-29.654l2.108,0.196Z" style="fill:#afadae;fill-rule:nonzero;"/><path d="M210.4,158.642l6.725,-29.013l1.938,0.45l7.304,19.746c1.529,4.163 2.579,7.267 3.35,10.396l0.095,-0.025c0.609,-3.988 1.334,-7.313 2.392,-11.875l3.346,-14.417l1.979,0.459l-6.729,29.008l-1.892,-0.438l-7.15,-19.437c-1.375,-3.858 -2.645,-7.371 -3.462,-10.692l-0.096,0.021c-0.612,3.625 -1.3,6.775 -2.417,11.6l-3.404,14.675l-1.979,-0.458Z" style="fill:#afadae;fill-rule:nonzero;"/><path d="M255.587,172.587c-1.675,0.084 -4.612,-0.379 -7.975,-1.85c-6.6,-2.891 -11.07,-9.874 -6.833,-19.549c3.55,-8.1 11.471,-11.967 20.096,-8.192c3.483,1.525 5.171,3.183 5.788,3.983l-1.321,1.354c-1.075,-1.291 -2.846,-2.65 -5.155,-3.658c-7.37,-3.229 -13.958,-0.417 -17.399,7.438c-3.246,7.412 -1.13,14.033 6.199,17.245c2.313,1.013 4.792,1.521 6.709,1.442l-0.109,1.787Z" style="fill:#afadae;fill-rule:nonzero;"/><path d="M275.008,150.942l1.788,1.145l-15.159,23.584l11.159,7.166l-0.954,1.492l-12.946,-8.321l16.112,-25.066Z" style="fill:#afadae;fill-rule:nonzero;"/><path d="M296.442,165.838l-12.059,13.354c-5.066,5.612 -4.4,10.146 -1.15,13.079c3.671,3.317 8.334,3.237 13.221,-2.175l12.058,-13.354l1.575,1.421l-11.908,13.191c-6.133,6.788 -12.062,5.963 -16.229,2.204c-3.871,-3.5 -5.333,-8.933 0.771,-15.691l12.146,-13.45l1.575,1.421Z" style="fill:#afadae;fill-rule:nonzero;"/><path d="M296.346,202.517c0.137,2.033 0.967,4.362 2.5,6.308c2.767,3.504 6.446,4.096 9.325,1.821c2.642,-2.079 3.1,-4.642 1.733,-9.083c-1.641,-4.792 -1.479,-8.584 1.717,-11.105c3.433,-2.712 8.154,-1.87 11.304,2.121c1.729,2.188 2.487,4.288 2.562,5.525l-1.879,0.475c-0.046,-0.983 -0.562,-2.996 -2.154,-5.008c-2.983,-3.783 -6.429,-3.15 -8.266,-1.7c-2.605,2.054 -2.746,4.592 -1.409,9c1.479,5.087 1.363,8.504 -2.146,11.271c-3.4,2.687 -8.375,2.666 -12.32,-2.334c-1.588,-2.012 -2.792,-4.891 -2.813,-6.85l1.846,-0.441Z" style="fill:#afadae;fill-rule:nonzero;"/><path d="M332.921,207.779l-25.238,15.854l-1.129,-1.796l25.238,-15.854l1.129,1.796Z" style="fill:#afadae;fill-rule:nonzero;"/><path d="M314.275,235.546l22.596,-21.788l0.954,1.996l-12.125,11.629c-3.296,3.146 -6.15,5.88 -8.775,8.071l0.058,0.117c3.409,-0.65 7.471,-1.075 11.925,-1.492l16.888,-1.662l0.975,2.033l-31.638,2.887l-0.858,-1.791Z" style="fill:#afadae;fill-rule:nonzero;"/><path d="M349.45,242.938l-28.196,9.645l-0.687,-2.008l28.196,-9.642l0.687,2.005Z" style="fill:#afadae;fill-rule:nonzero;"/><path d="M352.117,258.867l-2.142,-9.48l1.725,-0.391l4.746,21.037l-1.721,0.388l-2.142,-9.483l-27.329,6.166l-0.467,-2.071l27.33,-6.166Z" style="fill:#afadae;fill-rule:nonzero;"/><path d="M327.975,285.746l12.883,-0.913l16.188,-10.629l0.167,2.338l-8.521,5.525c-2.25,1.441 -4.117,2.641 -6.159,3.85l0.009,0.087c2.045,0.742 4.204,1.829 6.683,2.984l9.183,4.454l0.163,2.337l-17.604,-8.821l-12.842,0.904l-0.15,-2.116Z" style="fill:#afadae;fill-rule:nonzero;"/><path d="M47.071,364.171l7.683,-7.292c1.604,-1.517 2.825,-2.483 4.209,-3.517l-0.051,-0.12c-1.741,0.32 -3.354,0.491 -5.362,0.641l-10.654,0.671l4.175,9.617Zm-6.058,-9.521l-11.038,0.792l-0.863,-1.988l31.638,-1.975l0.808,1.867l-23.075,21.683l-0.862,-1.983l8.075,-7.604l-4.683,-10.792Z" style="fill:#afadae;fill-rule:nonzero;"/><path d="M43.058,383.071l24.638,-16.758l1.121,1.645l-8.042,19.475c-1.7,4.096 -3.033,7.088 -4.592,9.913l0.088,0.046c3.154,-2.517 5.941,-4.467 9.817,-7.105l12.245,-8.329l1.146,1.688l-24.637,16.75l-1.096,-1.609l7.942,-19.137c1.608,-3.771 3.062,-7.217 4.712,-10.212l-0.083,-0.046c-2.913,2.246 -5.554,4.096 -9.65,6.883l-12.467,8.475l-1.142,-1.679Z" style="fill:#afadae;fill-rule:nonzero;"/><path d="M65.229,409.863c0.725,0.962 1.921,2.208 3.271,3.545c6.8,6.713 13.929,6.234 19.992,0.1c5.379,-5.325 6.029,-11.954 -0.804,-18.704c-1.634,-1.616 -3.08,-2.733 -4.18,-3.45l-18.279,18.509Zm17.888,-21.134c1.916,1.338 3.895,2.921 5.912,4.908c3.871,3.825 5.771,7.755 5.7,11.355c-0.041,3.441 -1.462,6.766 -4.633,9.975c-3.079,3.112 -6.692,5.075 -10.696,5.283c-3.879,0.212 -8.271,-1.758 -12.362,-5.8c-1.634,-1.617 -3.146,-3.171 -4.534,-4.854l20.613,-20.867Z" style="fill:#afadae;fill-rule:nonzero;"/><path d="M104.625,426.725c-3.254,5.875 -3.092,13.6 3.096,17.025c6.183,3.429 12.729,-0.267 16.308,-6.721c3.063,-5.529 3.521,-13.467 -3.012,-17.083c-6.609,-3.663 -13.009,0.671 -16.392,6.779Zm21.404,11.254c-5.104,9.2 -13.254,10.596 -19.283,7.254c-6.417,-3.554 -8.596,-11.383 -4.075,-19.541c4.733,-8.542 12.787,-10.85 19.317,-7.23c6.574,3.642 8.516,11.442 4.041,19.517Z" style="fill:#afadae;fill-rule:nonzero;"/><path d="M134.425,441.583c0.85,0.663 2.079,1.167 3.462,1.634c5.067,1.704 8.905,0.291 10.413,-4.192c1.496,-4.438 -1.05,-7.538 -5.533,-9.05c-1.846,-0.617 -3.284,-0.917 -4.096,-1.004l-4.246,12.612Zm2.729,-14.758c1.734,0.258 3.871,0.7 6.258,1.504c3.355,1.129 5.613,2.871 6.655,4.904c0.946,1.759 1.108,3.917 0.316,6.263c-0.816,2.433 -2.095,4.004 -3.875,4.991c-2.491,1.446 -5.875,1.521 -9.354,0.351c-1.3,-0.442 -2.416,-0.863 -3.321,-1.496l-4.066,12.066l-2.013,-0.675l9.4,-27.908Z" style="fill:#afadae;fill-rule:nonzero;"/><path d="M157.517,448.3c0.941,0.517 2.233,0.829 3.671,1.075c5.27,0.896 8.837,-1.092 9.633,-5.75c0.792,-4.621 -2.209,-7.279 -6.867,-8.079c-1.917,-0.325 -3.383,-0.396 -4.2,-0.359l-2.237,13.113Zm0.408,-14.992c1.75,-0.016 3.929,0.092 6.413,0.513c3.483,0.596 5.983,1.962 7.329,3.804c1.204,1.596 1.7,3.7 1.283,6.137c-0.433,2.526 -1.45,4.28 -3.054,5.53c-2.234,1.816 -5.567,2.412 -9.179,1.796c-1.35,-0.234 -2.517,-0.48 -3.513,-0.963l-2.141,12.546l-2.092,-0.359l4.954,-29.004Z" style="fill:#afadae;fill-rule:nonzero;"/><path d="M179.404,451.487c0.109,6.717 4.104,13.33 11.171,13.217c7.071,-0.112 10.904,-6.583 10.787,-13.958c-0.104,-6.321 -3.662,-13.425 -11.129,-13.308c-7.558,0.12 -10.937,7.07 -10.829,14.049Zm24.163,-0.912c0.166,10.517 -6.2,15.792 -13.096,15.896c-7.334,0.117 -13.125,-5.579 -13.275,-14.904c-0.154,-9.767 5.675,-15.779 13.141,-15.896c7.513,-0.121 13.084,5.671 13.23,14.904Z" style="fill:#afadae;fill-rule:nonzero;"/><path d="M212.521,448.912l4.646,-0.883c4.516,-0.858 6.987,-3.941 6.254,-7.804c-0.85,-4.475 -4.5,-5.667 -9.1,-4.792c-2,0.38 -3.434,0.88 -4.142,1.192l2.342,12.287Zm-4.7,-13.324c1.741,-0.78 4.175,-1.471 6.221,-1.855c3.82,-0.729 6.408,-0.366 8.371,0.967c1.483,0.938 2.637,2.738 3.024,4.783c0.755,3.95 -1.112,6.917 -4.275,8.729l0.017,0.092c2.484,0.288 4.383,2.221 5.696,5.346c1.867,4.371 2.846,6.433 3.675,7.492l-2.129,0.404c-0.642,-0.779 -1.738,-3.225 -3.221,-6.767c-1.712,-4.037 -3.9,-5.6 -7.8,-5.037l-4.558,0.866l2.554,13.417l-2.084,0.396l-5.491,-28.833Z" style="fill:#afadae;fill-rule:nonzero;"/><path d="M235.063,430.288l-9.175,3.229l-0.588,-1.667l20.354,-7.167l0.588,1.667l-9.175,3.233l9.308,26.438l-2,0.708l-9.312,-26.441Z" style="fill:#afadae;fill-rule:nonzero;"/><path d="M249.642,422.608l8.746,15.73c3.675,6.612 8.187,7.441 12.012,5.316c4.329,-2.408 5.758,-6.846 2.213,-13.221l-8.746,-15.733l1.854,-1.029l8.642,15.537c4.445,8 1.749,13.346 -3.159,16.071c-4.562,2.542 -10.179,2.171 -14.604,-5.791l-8.812,-15.85l1.854,-1.03Z" style="fill:#afadae;fill-rule:nonzero;"/><path d="M289.988,432.971l-19.201,-22.796l1.526,-1.283l20.195,6.004c4.254,1.271 7.367,2.292 10.334,3.55l0.041,-0.092c-2.829,-2.879 -5.054,-5.454 -8.075,-9.037l-9.541,-11.334l1.554,-1.308l19.2,22.796l-1.492,1.254l-19.858,-5.938c-3.913,-1.216 -7.492,-2.304 -10.638,-3.645l-0.041,0.095c2.533,2.663 4.65,5.101 7.837,8.888l9.713,11.537l-1.554,1.309Z" style="fill:#afadae;fill-rule:nonzero;"/><path d="M292.833,389.85l22.025,20.054l-1.429,1.567l-22.025,-20.05l1.429,-1.571Z" style="fill:#afadae;fill-rule:nonzero;"/><path d="M302.525,380.721l-5.733,7.862l-1.429,-1.041l12.72,-17.434l1.429,1.042l-5.733,7.858l22.654,16.525l-1.254,1.717l-22.654,-16.529Z" style="fill:#afadae;fill-rule:nonzero;"/><path d="M338.696,375.75l-11.454,-5.958l-19.355,0.6l1.084,-2.079l10.15,-0.255c2.671,-0.054 4.883,-0.095 7.258,-0.058l0.042,-0.079c-1.359,-1.704 -2.629,-3.763 -4.138,-6.042l-5.496,-8.587l1.08,-2.084l10.391,16.721l11.417,5.942l-0.979,1.879Z" style="fill:#afadae;fill-rule:nonzero;"/><path d="M40.95,315.617c0,3.041 -2.488,5.554 -5.546,5.554c-3.071,-0 -5.554,-2.513 -5.554,-5.554c0,-3.063 2.483,-5.554 5.554,-5.554c3.058,-0 5.546,2.491 5.546,5.554Z" style="fill:#afadae;fill-rule:nonzero;"/><path d="M348.854,315.617c0,3.041 -2.487,5.554 -5.546,5.554c-3.062,-0 -5.545,-2.513 -5.545,-5.554c-0,-3.063 2.483,-5.554 5.545,-5.554c3.059,-0 5.546,2.491 5.546,5.554Z" style="fill:#afadae;fill-rule:nonzero;"/><path d="M510.113,294.767l-8.655,-0c-2.254,-17.688 -17.687,-27.846 -35.745,-27.846c-27.842,-0 -47.592,22.2 -47.592,58.508c-0,44.209 19.75,59.263 47.592,59.263c8.845,-0 18.437,-2.634 26.341,-6.963c0.375,-9.596 0.938,-21.258 0.938,-28.596c-0,-11.662 -1.504,-14.108 -16.175,-14.108l-0,-6.396c6.016,0.375 11.845,0.75 17.87,0.75c10.159,0 20.13,-0.375 30.096,-0.75l0,6.396c-10.341,-0 -11.287,3.383 -11.662,12.979l-1.129,33.675c-14.296,6.775 -30.288,11.288 -48.163,11.667c-38.75,-0 -69.041,-25.213 -69.041,-67.35c-0,-39.508 30.291,-67.729 69.041,-67.729c16.558,-0 32.363,5.266 46.284,13.925l-0,22.575Z" style="fill:#474645;fill-rule:nonzero;"/><path d="M641.588,390.333l-76.938,0c-21.638,0 -25.967,1.13 -27.85,1.13l-0.375,-0l0,-6.4c17.875,-0 19.004,-1.692 19.004,-11.659l0,-95.196c0,-9.971 -1.129,-11.662 -19.004,-11.662l0,-6.396c5.271,0.754 11.479,1.129 29.537,1.129c18.063,0 24.267,-0.375 29.538,-1.129l-0,6.396c-18.25,-0 -19.375,1.691 -19.375,11.662l0,103.471l33.675,0c12.412,0 25.771,-3.387 30.096,-20.883l7.529,-0l-5.837,29.537Z" style="fill:#474645;fill-rule:nonzero;"/><path d="M693.688,373.404c-0,9.967 1.133,11.659 19.57,11.659l0,6.4c-5.27,-0.755 -11.287,-1.13 -29.35,-1.13c-18.062,0 -24.083,0.375 -29.35,1.13l0,-6.4c17.309,-0 18.438,-1.692 18.438,-11.659l-0,-94.816c-0,-9.971 -3.388,-11.667 -18.438,-11.667l0,-6.396c11.288,0.379 24.646,0.754 53.996,0.754c26.9,0 43.271,-0.375 53.804,-0.754l0,27.842l-6.396,-0c-3.2,-15.425 -12.608,-18.059 -30.666,-18.059l-31.608,0l-0,47.409l34.241,-0c7.525,-0 10.534,-1.696 10.534,-17.496l6.399,-0l0,43.271l-6.399,-0c-0,-15.429 -3.009,-17.121 -10.534,-17.121l-34.241,-0l-0,47.033Z" style="fill:#474645;fill-rule:nonzero;"/><path d="M397.537,458.442c1.742,1.195 4.171,2.02 6.738,2.02c4.629,0 7.475,-2.612 7.475,-6.416c-0,-3.484 -1.792,-5.504 -6.279,-7.246c-4.954,-1.742 -7.934,-4.308 -7.934,-8.525c0,-4.537 3.713,-7.837 8.984,-7.837c2.887,-0 5.092,0.729 6.146,1.466l-0.829,1.834c-0.821,-0.596 -2.796,-1.467 -5.455,-1.467c-4.991,-0 -6.691,3.208 -6.691,5.637c-0,3.438 1.971,5.179 6.416,6.921c5.092,2.063 7.792,4.359 7.792,8.988c-0,4.491 -3.204,8.525 -9.808,8.525c-2.659,-0 -5.775,-0.871 -7.38,-2.109l0.825,-1.791Z" style="fill:#afadae;fill-rule:nonzero;"/><path d="M434.958,460.871c-0.962,0.462 -3.254,1.425 -6.462,1.425c-6.329,-0 -10.542,-4.629 -10.542,-11.229c0,-6.971 4.767,-11.738 11.317,-11.738c2.708,0 4.954,0.779 5.779,1.379l-0.779,1.784c-1.054,-0.596 -2.75,-1.284 -5.183,-1.284c-5.909,0 -8.934,4.538 -8.934,9.675c0,5.775 3.621,9.534 8.709,9.534c2.612,-0 4.308,-0.734 5.5,-1.288l0.595,1.742Z" style="fill:#afadae;fill-rule:nonzero;"/><path d="M440.242,429.287l2.2,0l-0,14.488l0.091,0c0.642,-1.238 1.696,-2.429 2.979,-3.162c1.28,-0.826 2.796,-1.284 4.446,-1.284c2.063,0 7.655,1.054 7.655,9.258l-0,13.25l-2.2,0l-0,-13.016c-0,-3.992 -1.559,-7.567 -6.05,-7.567c-3.117,0 -5.688,2.246 -6.646,4.95c-0.23,0.688 -0.275,1.283 -0.275,2.2l-0,13.433l-2.2,0l-0,-32.55Z" style="fill:#afadae;fill-rule:nonzero;"/><path d="M465.192,450.883c-0,5.496 3.525,9.621 8.016,9.621c4.588,0 8.209,-4.125 8.209,-9.758c-0,-4.038 -2.246,-9.583 -8.067,-9.583c-5.642,-0 -8.158,4.995 -8.158,9.72Zm18.421,-0.275c-0,8.2 -5.634,11.734 -10.542,11.734c-5.684,-0 -10.084,-4.446 -10.084,-11.325c0,-7.517 4.955,-11.688 10.405,-11.688c6.1,0 10.221,4.584 10.221,11.279Z" style="fill:#afadae;fill-rule:nonzero;"/><path d="M489.592,450.883c-0,5.496 3.529,9.621 8.021,9.621c4.583,0 8.204,-4.125 8.204,-9.758c-0,-4.038 -2.246,-9.583 -8.067,-9.583c-5.642,-0 -8.158,4.995 -8.158,9.72Zm18.425,-0.275c-0,8.2 -5.638,11.734 -10.542,11.734c-5.688,-0 -10.083,-4.446 -10.083,-11.325c-0,-7.517 4.95,-11.688 10.404,-11.688c6.1,0 10.221,4.584 10.221,11.279Z" style="fill:#afadae;fill-rule:nonzero;"/><rect x="513.629" y="429.287" width="2.196" height="32.55" style="fill:#afadae;fill-rule:nonzero;"/><path d="M522.429,458.946c1.192,0.737 2.979,1.516 4.95,1.516c3.483,0 5.138,-1.879 5.138,-4.17c-0,-2.43 -1.471,-3.717 -4.634,-4.996c-3.621,-1.379 -5.591,-3.346 -5.591,-6.009c-0,-3.162 2.521,-5.958 6.787,-5.958c2.013,0 3.758,0.596 4.859,1.379l-0.83,1.784c-0.775,-0.55 -2.2,-1.329 -4.396,-1.329c-2.799,-0 -4.266,1.791 -4.266,3.804c-0,2.295 1.558,3.3 4.537,4.541c3.575,1.375 5.684,3.163 5.684,6.505c-0,3.762 -2.934,6.283 -7.425,6.283c-2.109,-0 -4.125,-0.596 -5.592,-1.513l0.779,-1.837Z" style="fill:#afadae;fill-rule:nonzero;"/><path d="M543.663,430.117c-0.83,3.437 -2.796,8.662 -3.53,9.946l-1.562,0.229c0.737,-1.925 1.967,-6.875 2.379,-9.717l2.713,-0.458Z" style="fill:#afadae;fill-rule:nonzero;"/><path d="M558.479,430.942l15.263,-0l-0,1.833l-13.063,0l0,12.283l12.009,0l-0,1.834l-12.009,-0l0,14.945l-2.2,0l0,-30.895Z" style="fill:#afadae;fill-rule:nonzero;"/><path d="M580.037,450.883c0,5.496 3.53,9.621 8.021,9.621c4.584,0 8.209,-4.125 8.209,-9.758c-0,-4.038 -2.25,-9.583 -8.071,-9.583c-5.642,-0 -8.159,4.995 -8.159,9.72Zm18.425,-0.275c0,8.2 -5.637,11.734 -10.541,11.734c-5.688,-0 -10.084,-4.446 -10.084,-11.325c0,-7.517 4.951,-11.688 10.405,-11.688c6.1,0 10.22,4.584 10.22,11.279Z" style="fill:#afadae;fill-rule:nonzero;"/><path d="M621.029,456.475c0,1.925 0.046,3.667 0.184,5.362l-2.063,0l-0.137,-3.941l-0.092,-0c-1.104,2.062 -3.621,4.446 -7.521,4.446c-2.796,-0 -7.517,-1.421 -7.517,-9.717l0,-12.787l2.2,-0l0,12.37c0,4.771 1.471,8.209 5.821,8.209c3.213,-0 5.546,-2.246 6.513,-4.446c0.229,-0.688 0.412,-1.559 0.412,-2.429l0,-13.704l2.2,-0l0,16.637Z" style="fill:#afadae;fill-rule:nonzero;"/><path d="M628.421,445.104c-0,-2.017 -0.046,-3.525 -0.188,-5.266l2.063,-0l0.141,3.987l0.092,0c1.192,-2.479 3.988,-4.496 7.567,-4.496c2.104,0 7.696,1.054 7.696,9.304l-0,13.204l-2.2,0l-0,-13.016c-0,-3.992 -1.559,-7.613 -6.096,-7.613c-3.071,0 -5.729,2.2 -6.6,5.046c-0.138,0.546 -0.275,1.279 -0.275,1.967l-0,13.616l-2.2,0l-0,-16.733Z" style="fill:#afadae;fill-rule:nonzero;"/><path d="M668.358,448.542c0,-0.592 -0.041,-1.417 -0.225,-2.017c-0.733,-2.933 -3.346,-5.362 -6.925,-5.362c-4.812,-0 -7.833,4.17 -7.833,9.854c-0,4.954 2.471,9.487 7.696,9.487c3.167,0 6.146,-2.104 7.062,-5.729c0.184,-0.592 0.225,-1.146 0.225,-1.833l0,-4.4Zm2.204,-19.255l0,27.413c0,1.654 0.046,3.579 0.184,5.137l-1.971,0l-0.183,-4.17l-0.096,-0c-1.142,2.429 -3.754,4.675 -7.833,4.675c-5.459,-0 -9.492,-4.538 -9.492,-11.092c-0.042,-7.337 4.491,-11.921 9.9,-11.921c3.804,0 6.233,1.971 7.2,3.896l0.087,0l0,-13.938l2.204,0Z" style="fill:#afadae;fill-rule:nonzero;"/><path d="M689.462,450.058c-4.816,-0.141 -11.137,0.592 -11.137,5.867c0,3.162 2.108,4.579 4.4,4.579c3.663,0 5.775,-2.246 6.508,-4.396c0.184,-0.462 0.229,-0.966 0.229,-1.333l0,-4.717Zm2.2,6.555c0,1.741 0.046,3.529 0.321,5.224l-2.016,0l-0.321,-3.162l-0.092,0c-1.1,1.692 -3.529,3.667 -7.058,3.667c-4.45,-0 -6.467,-3.117 -6.467,-6.05c0,-5.092 4.446,-8.159 13.433,-8.071l0,-0.592c0,-2.158 -0.412,-6.512 -5.637,-6.466c-1.929,-0 -3.942,0.504 -5.55,1.65l-0.687,-1.605c2.016,-1.329 4.491,-1.879 6.466,-1.879c6.371,0 7.608,4.767 7.608,8.667l0,8.617Z" style="fill:#afadae;fill-rule:nonzero;"/><path d="M701.804,434.975l0,4.863l6.275,-0l0,1.783l-6.275,-0l0,14.304c0,2.796 0.871,4.537 3.209,4.537c1.145,0 1.97,-0.137 2.52,-0.32l0.275,1.65c-0.733,0.32 -1.741,0.55 -3.071,0.55c-1.604,-0 -2.933,-0.505 -3.762,-1.559c-1.008,-1.146 -1.375,-3.029 -1.375,-5.275l0,-13.887l-3.708,-0l-0,-1.783l3.708,-0l0,-4.038l2.204,-0.825Z" style="fill:#afadae;fill-rule:nonzero;"/><path d="M712.95,461.837l0,-21.999l2.2,-0l0,21.999l-2.2,0Zm2.842,-28.283c-0,1.008 -0.688,1.879 -1.834,1.879c-1.008,0 -1.696,-0.871 -1.696,-1.879c0,-1.008 0.78,-1.925 1.788,-1.925c1.008,0 1.742,0.871 1.742,1.925Z" style="fill:#afadae;fill-rule:nonzero;"/><path d="M722.904,450.883c0,5.496 3.529,9.621 8.021,9.621c4.583,0 8.208,-4.125 8.208,-9.758c0,-4.038 -2.246,-9.583 -8.07,-9.583c-5.638,-0 -8.159,4.995 -8.159,9.72Zm18.425,-0.275c0,8.2 -5.637,11.734 -10.541,11.734c-5.688,-0 -10.084,-4.446 -10.084,-11.325c0,-7.517 4.95,-11.688 10.404,-11.688c6.1,0 10.221,4.584 10.221,11.279Z" style="fill:#afadae;fill-rule:nonzero;"/><path d="M746.937,445.104c0,-2.017 -0.049,-3.525 -0.187,-5.266l2.062,-0l0.138,3.987l0.096,0c1.192,-2.479 3.987,-4.496 7.562,-4.496c2.109,0 7.7,1.054 7.7,9.304l0,13.204l-2.204,0l0,-13.016c0,-3.992 -1.558,-7.613 -6.096,-7.613c-3.07,0 -5.729,2.2 -6.6,5.046c-0.137,0.546 -0.275,1.279 -0.275,1.967l0,13.616l-2.196,0l0,-16.733Z" style="fill:#afadae;fill-rule:nonzero;"/></g><defs><radialGradient id="_Radial1" cx="0" cy="0" r="1" gradientUnits="userSpaceOnUse" gradientTransform="matrix(117.875,0,0,117.875,195.706,294.116)"><stop offset="0" style="stop-color:#fff;stop-opacity:1"/><stop offset="1" style="stop-color:#afadae;stop-opacity:1"/></radialGradient><radialGradient id="_Radial2" cx="0" cy="0" r="1" gradientUnits="userSpaceOnUse" gradientTransform="matrix(117.875,0,0,117.875,195.706,294.116)"><stop offset="0" style="stop-color:#d3d1d0;stop-opacity:1"/><stop offset="1" style="stop-color:#afadae;stop-opacity:1"/></radialGradient><linearGradient id="_Linear3" x1="0" y1="0" x2="1" y2="0" gradientUnits="userSpaceOnUse" gradientTransform="matrix(173.449,0,0,173.449,67.2458,271.337)"><stop offset="0" style="stop-color:#36478e;stop-opacity:1"/><stop offset="0.9" style="stop-color:#13aeda;stop-opacity:1"/><stop offset="1" style="stop-color:#15b4df;stop-opacity:1"/></linearGradient><linearGradient id="_Linear4" x1="0" y1="0" x2="1" y2="0" gradientUnits="userSpaceOnUse" gradientTransform="matrix(204.592,0,0,204.592,90.2025,356.784)"><stop offset="0" style="stop-color:#343842;stop-opacity:1"/><stop offset="1" style="stop-color:#814695;stop-opacity:1"/></linearGradient><radialGradient id="_Radial5" cx="0" cy="0" r="1" gradientUnits="userSpaceOnUse" gradientTransform="matrix(117.875,0,0,117.875,195.706,294.116)"><stop offset="0" style="stop-color:#d3d1d0;stop-opacity:1"/><stop offset="1" style="stop-color:#afadae;stop-opacity:1"/></radialGradient><linearGradient id="_Linear6" x1="0" y1="0" x2="1" y2="0" gradientUnits="userSpaceOnUse" gradientTransform="matrix(119.338,0,0,119.338,190.663,278.191)"><stop offset="0" style="stop-color:#02aa67;stop-opacity:1"/><stop offset="1" style="stop-color:#85c663;stop-opacity:1"/></linearGradient></defs></svg>