<svg id="Layer_1" data-name="Layer 1" xmlns="http://www.w3.org/2000/svg" viewBox="0 0 244.65 67.61"><title>pca-logo</title><path d="M54.32,10.94a6.89,6.89,0,0,0-2.23-.2c-3.49,0-8.55-.35-8.55-.35a2.31,2.31,0,0,0-1-1.55,2,2,0,0,0-1.84-.48c-.32-.07-.43,0-.75.17a1.83,1.83,0,0,0-1.41-.3c-.35-.19-.44-.11-.79-.11a2.86,2.86,0,0,0-1.21-.28c-.27,0-.45-.07-.49,0s-.17.12-.37,0-.28.15-.34.27-.24.12-.43.06-.31.41-.38.57c-.28,0-.38.43-.53.87a1.52,1.52,0,0,0-1,.87,7.43,7.43,0,0,0-.46,1.15c-.14.4-.5,1.74-.59,2.22a3.35,3.35,0,0,0-2.6,1.08,4.28,4.28,0,0,0-.68,2.79c0,.21,0,.24-.21.28s0,.58,0,.64,0,.12.14.76a5.23,5.23,0,0,0,.56,1.2,3.56,3.56,0,0,0-.21,1.15,2.43,2.43,0,0,0,.38,1.39,1.79,1.79,0,0,0,.1,1.37c.14.31-.27.93-.39,1.76a2.88,2.88,0,0,0,.6,1.87c0,.22.27,1.44.29,1.77a.72.72,0,0,0-.22.6.41.41,0,0,1-.06.35.73.73,0,0,0,0,.6c.08.1-.12.32-.26.52-.53.28-.39.74-.49,1s-.16,0-.39.49.23.87.47,1.26a14.69,14.69,0,0,0,0,5.52,10,10,0,0,1-.14,3.34,15,15,0,0,0-.05,2.72c0,.39-.28.59-.44.88-.28,0-.46.28-.7.64a3.67,3.67,0,0,0-2.13.47c-.5.22-2.82,1.24-3.2,1.32a24.15,24.15,0,0,1-2.43-.35c-.45,0-1.08.6-1.32,1.07a2.17,2.17,0,0,0-.15,1.6,2,2,0,0,1-.19,1.46c-.17.12-.36.18-.57,1.23a3,3,0,0,0,.55,2.26,1.58,1.58,0,0,0,1.55.65c.59,0,.81-.61.87-.93s.12-.94.16-1.1a1,1,0,0,1,.36-.45,4.57,4.57,0,0,1,1.25-.54,39.19,39.19,0,0,1,5.45-1.26,1.41,1.41,0,0,1,.75,0,4.71,4.71,0,0,0,.86,0c.2,0,.5-.36.8-.36a5.11,5.11,0,0,0,1.9-.62,11.65,11.65,0,0,1,2.1-.83c.36-.12.35-.25.32-.38s-.48-.3-.78-.42a6.67,6.67,0,0,1-1.58-1,38.83,38.83,0,0,0,2.44-3.7c.36-.7,1.88-4.27,1.88-4.27a5.57,5.57,0,0,0,.77.46,9.32,9.32,0,0,1,1.48,1.56,3.63,3.63,0,0,0,1.58.76,18.6,18.6,0,0,0-1.58,3.75l-.52,2.25c-.06.25.1.29,0,.54s-.48.13-.54.13a13.9,13.9,0,0,0-.62,1.44l-.57,1.32a.65.65,0,0,0,.12.8c0,.07-.54,1.52-.63,1.76s-.33.47-.2.76,1.46.55,1.46.55a10.17,10.17,0,0,0,4-.16c1-.28.85-1.1.79-1.52a1,1,0,0,0-.48-.64s2-5,2.18-5.38,1.23-3,1.47-3.32a1.48,1.48,0,0,0,.36-.82,1,1,0,0,0,.33-1.15c.34-.21.27-.8.2-1,.3-.19.28-.81.24-1a.83.83,0,0,0,.11-.75,10.88,10.88,0,0,1,0-1.32,12.17,12.17,0,0,1,.27-1.23c0-.14.16-.42.12-.65s-.07-.6-1.09-.8a3.58,3.58,0,0,0-2.52.66,2.64,2.64,0,0,0-.48-1.07c-.24-.38-1.24-1.61-1.59-2.14a3.05,3.05,0,0,1-.47-1.12A3.74,3.74,0,0,0,40,32.89c-.3-.27-.58-.08-1,0a3.86,3.86,0,0,0-.11-2c-.07-.58-.35-2.31-.43-3.23a11.13,11.13,0,0,0-.32-2.86s2-1.5,2.27-1.8a8.84,8.84,0,0,1,1.08-.9c.24-.15.22-.33.27-.6s.19-1.35.26-2a22.19,22.19,0,0,0,0-4.53c.33-.14.18-.47.23-.85a2.67,2.67,0,0,1,.25-.9c.07-.07.34,0,.54.13s.29-.09.47-.36a.79.79,0,0,0,.12-.56.32.32,0,0,0,.19-.17c.06-.14,0-.3-.05-.59.2,0,1.58.38,3,.74a11.11,11.11,0,0,0,3.58.28c.54-.1,3.78-.87,4-.93s.17-.09.2-.38-.08-.28-.26-.38M39.44,18.84c-.1.45-.28,1.76-.65,1.92a17.76,17.76,0,0,0-2.14.83l-.79-1.14s.16-.18-.09-.51c.13-.52.12-.61.21-.73s.48-.51,0-.88a5.19,5.19,0,0,0-.46-.49s.56-.1.54-.46-.76-.58-.76-.58.07-.43-.07-.59A.75.75,0,0,0,35,16s-.37-.85-.48-1c.12-.49.45-2,.51-2.57A8,8,0,0,1,36.52,12a2.38,2.38,0,0,0,1.35-.37c.27-.29.55-.65.82-.71.13.22.12.7.25.77a.8.8,0,0,0,.16.76c.28.31.64.67.88.58.12.1,0,.16-.12.22s-.55.22-.46.65.15.65.15.65.21.43.64.07c0,0-.7,3.76-.8,4.21" transform="translate(0 0)" style="fill:#1d1c3c"/><path d="M82.27,6.57h23.59c13.92,0,22.88,7.15,22.88,19.34v.16c0,13-10,19.81-23.66,19.81H97.52V61.6H82.27Zm22.49,27.36c5.42,0,8.73-2.83,8.73-7.15v-.16c0-4.72-3.3-7.23-8.8-7.23H97.52V33.93Z" transform="translate(0 0)" style="fill:#1d1c3c"/><path d="M131.71,34.25v-.16c0-16,12.34-28.62,29-28.62,11.24,0,18.47,4.72,23.35,11.48L172.6,25.84c-3.14-3.93-6.76-6.45-12-6.45-7.7,0-13.13,6.52-13.13,14.54v.16c0,8.26,5.42,14.7,13.13,14.7,5.74,0,9.12-2.67,12.42-6.68l11.48,8.18c-5.19,7.15-12.19,12.42-24.37,12.42A28,28,0,0,1,131.75,35.1q0-.42,0-.85" transform="translate(0 0)" style="fill:#1d1c3c"/><path d="M206.52,6.18h14.7l23.43,55.43h-16.4l-4-9.83H203l-3.93,9.83h-16Zm13.37,33.73-6.13-15.64-6.24,15.64Z" transform="translate(0 0)" style="fill:#1d1c3c"/><path d="M66,24.68a29.54,29.54,0,0,1,.81,3.55,31.68,31.68,0,0,1-5.69,23.7,30.81,30.81,0,0,1-9,8.43,31.4,31.4,0,0,1-23.61,3.06A30.82,30.82,0,0,1,10.08,49.58,29.85,29.85,0,0,1,6.15,38.69,31.15,31.15,0,0,1,6.62,27.2a31.49,31.49,0,0,1,4.6-10.51,35.41,35.41,0,0,1,8.07-8.31A30.91,30.91,0,0,1,30,3.38,29.07,29.07,0,0,1,42.16,3.1,30.54,30.54,0,0,1,53.61,7.7a29,29,0,0,1,4.29,3.48,8,8,0,0,1,.64-.49A34.51,34.51,0,0,0,42.6,1.18a36,36,0,0,0-13.08-1,34,34,0,0,0-12.82,4A32.8,32.8,0,0,0,.8,25.84a34.59,34.59,0,0,0,14.51,36.1A33.65,33.65,0,0,0,27.74,67,32.68,32.68,0,0,0,41,66.84a35.13,35.13,0,0,0,12-5.2,34.31,34.31,0,0,0,9.29-9,33,33,0,0,0,5.05-11.82,33.57,33.57,0,0,0-.73-16.48l-.57.25" transform="translate(0 0)" style="fill:#1d1c3c"/><path d="M66,18.89h0a2.6,2.6,0,0,0-1.27-.33,2.64,2.64,0,0,0-.72.1,2.61,2.61,0,1,0,2,.23" transform="translate(0 0)" style="fill:#1d1c3c"/></svg>